<svg width="122" height="122" viewBox="0 0 122 122" fill="none" xmlns="http://www.w3.org/2000/svg">
<path d="M61.0003 10.1666C32.9403 10.1666 10.167 32.94 10.167 61C10.167 89.06 32.9403 111.833 61.0003 111.833C89.0603 111.833 111.834 89.06 111.834 61C111.834 32.94 89.0603 10.1666 61.0003 10.1666ZM61.0003 25.4166C69.4387 25.4166 76.2503 32.2283 76.2503 40.6666C76.2503 49.105 69.4387 55.9166 61.0003 55.9166C52.562 55.9166 45.7503 49.105 45.7503 40.6666C45.7503 32.2283 52.562 25.4166 61.0003 25.4166ZM61.0003 97.6C48.292 97.6 37.0578 91.0933 30.5003 81.2316C30.6528 71.1158 50.8337 65.575 61.0003 65.575C71.1162 65.575 91.3478 71.1158 91.5003 81.2316C84.9428 91.0933 73.7087 97.6 61.0003 97.6Z" fill="#D9D9D9"/>
</svg>
